<svg version="1.1" id="Layer_1" xmlns="http://www.w3.org/2000/svg" xmlns:xlink="http://www.w3.org/1999/xlink" x="0px" y="0px"
	 width="100%" viewBox="0 0 180 180" enable-background="new 0 0 180 180" xml:space="preserve">
<path fill="#E52538" opacity="1.000000" stroke="none" 
	d="
M0.999999,112.000000 
	C1.000000,95.312439 1.000000,78.624878 1.390191,61.659416 
	C3.843391,54.116009 5.915842,46.853176 7.967558,39.584484 
	C13.160688,21.186596 24.091846,8.278438 42.937000,2.857199 
	C43.428730,2.715742 43.651695,1.640022 44.000000,1.000000 
	C50.021152,1.000000 56.042305,1.000000 62.231628,1.297000 
	C62.211536,2.922698 62.524624,4.837574 61.759586,5.491906 
	C50.809174,14.857662 42.983360,26.451675 37.197548,39.497982 
	C31.102158,53.242340 27.294580,67.632271 27.134930,82.689255 
	C27.049885,90.709976 27.867048,98.817589 29.099667,106.758286 
	C31.420895,121.711967 37.044949,135.444885 47.352688,146.711990 
	C56.105736,156.279678 68.088364,153.799377 78.650749,152.301361 
	C87.756813,151.009903 96.651756,146.860199 105.147873,142.914429 
	C124.600082,133.880402 141.230957,121.371094 151.661926,101.933922 
	C155.870316,94.091995 156.165039,86.259888 151.204987,78.816307 
	C139.103668,60.655834 123.297501,47.256035 102.142792,40.414009 
	C94.617210,37.980030 88.570679,38.428921 83.135521,44.725880 
	C86.783577,46.166878 90.257423,47.554024 93.742256,48.913017 
	C109.455040,55.040581 123.986847,63.093739 134.646713,76.501472 
	C137.428131,79.999870 139.363113,84.939194 139.780304,89.395233 
	C140.758423,99.841957 134.511993,107.356461 127.267250,113.834656 
	C111.791046,127.673355 93.658340,136.398849 73.416130,140.754028 
	C66.112556,142.325424 53.567127,138.441284 50.759842,131.259995 
	C48.108517,124.477661 45.984440,117.483215 43.773804,110.535820 
	C38.485146,93.915108 40.333084,77.078850 44.393787,60.813515 
	C47.776745,47.262928 54.097717,34.766895 64.053101,24.108404 
	C74.793831,12.609102 87.679588,9.185446 102.309082,11.313811 
	C115.839485,13.282279 128.125702,19.313341 139.120102,27.149744 
	C156.532578,39.560719 171.833633,54.073917 179.145065,75.096260 
	C179.305237,75.556839 180.361664,75.705719 181.000000,76.000000 
	C181.000000,85.354225 181.000000,94.708458 180.670914,104.251831 
	C179.584793,106.184723 178.757370,107.901657 178.081543,109.676331 
	C170.562119,129.421646 156.407776,143.779373 139.653778,155.645126 
	C123.797188,166.875290 106.451599,175.248260 87.191841,179.137100 
	C86.689651,179.238510 86.392685,180.356247 86.000008,181.000000 
	C74.312439,181.000000 62.624878,181.000000 50.713211,180.658829 
	C49.664612,179.875381 48.860455,179.388947 48.012226,178.998169 
	C43.446144,176.894699 38.314659,175.547852 34.401569,172.587357 
	C23.394350,164.259735 15.983231,152.924240 11.100089,140.185226 
	C7.750297,131.446381 5.640324,122.234222 2.874799,113.264893 
	C2.701834,112.703911 1.645404,112.415321 0.999999,112.000000 
M104.929611,86.522324 
	C94.447144,79.263031 82.997597,74.175323 70.617233,70.796440 
	C66.249802,85.012405 67.502472,98.520065 71.988876,112.173157 
	C86.762276,107.929451 99.278564,101.062897 110.624275,90.852638 
	C108.557350,89.321678 107.007523,88.173721 104.929611,86.522324 
z"/>
<path fill="#000000" opacity="1.000000" stroke="none" 
	d="
M181.000000,75.531342 
	C180.361664,75.705719 179.305237,75.556839 179.145065,75.096260 
	C171.833633,54.073917 156.532578,39.560719 139.120102,27.149744 
	C128.125702,19.313341 115.839485,13.282279 102.309082,11.313811 
	C87.679588,9.185446 74.793831,12.609102 64.053101,24.108404 
	C54.097717,34.766895 47.776745,47.262928 44.393787,60.813515 
	C40.333084,77.078850 38.485146,93.915108 43.773804,110.535820 
	C45.984440,117.483215 48.108517,124.477661 50.759842,131.259995 
	C53.567127,138.441284 66.112556,142.325424 73.416130,140.754028 
	C93.658340,136.398849 111.791046,127.673355 127.267250,113.834656 
	C134.511993,107.356461 140.758423,99.841957 139.780304,89.395233 
	C139.363113,84.939194 137.428131,79.999870 134.646713,76.501472 
	C123.986847,63.093739 109.455040,55.040581 93.742256,48.913017 
	C90.257423,47.554024 86.783577,46.166878 83.135521,44.725880 
	C88.570679,38.428921 94.617210,37.980030 102.142792,40.414009 
	C123.297501,47.256035 139.103668,60.655834 151.204987,78.816307 
	C156.165039,86.259888 155.870316,94.091995 151.661926,101.933922 
	C141.230957,121.371094 124.600082,133.880402 105.147873,142.914429 
	C96.651756,146.860199 87.756813,151.009903 78.650749,152.301361 
	C68.088364,153.799377 56.105736,156.279678 47.352688,146.711990 
	C37.044949,135.444885 31.420895,121.711967 29.099667,106.758286 
	C27.867048,98.817589 27.049885,90.709976 27.134930,82.689255 
	C27.294580,67.632271 31.102158,53.242340 37.197548,39.497982 
	C42.983360,26.451675 50.809174,14.857662 61.759586,5.491906 
	C62.524624,4.837574 62.211536,2.922698 62.699898,1.297000 
	C102.243980,1.000000 141.487961,1.000000 181.000000,1.000000 
	C181.000000,25.686914 181.000000,50.374798 181.000000,75.531342 
z"/>
<path fill="#000000" opacity="1.000000" stroke="none" 
	d="
M86.468666,181.000000 
	C86.392685,180.356247 86.689651,179.238510 87.191841,179.137100 
	C106.451599,175.248260 123.797188,166.875290 139.653778,155.645126 
	C156.407776,143.779373 170.562119,129.421646 178.081543,109.676331 
	C178.757370,107.901657 179.584793,106.184723 180.670914,104.720490 
	C181.000000,130.268356 181.000000,155.536728 181.000000,181.000000 
	C149.646042,181.000000 118.291679,181.000000 86.468666,181.000000 
z"/>
<path fill="#000000" opacity="1.000000" stroke="none" 
	d="
M0.999999,112.468658 
	C1.645404,112.415321 2.701834,112.703911 2.874799,113.264893 
	C5.640324,122.234222 7.750297,131.446381 11.100089,140.185226 
	C15.983231,152.924240 23.394350,164.259735 34.401569,172.587357 
	C38.314659,175.547852 43.446144,176.894699 48.012226,178.998169 
	C48.860455,179.388947 49.664612,179.875381 50.244553,180.658829 
	C33.727455,181.000000 17.454914,181.000000 1.000000,181.000000 
	C1.000000,158.312759 1.000000,135.625046 0.999999,112.468658 
z"/>
<path fill="#000000" opacity="1.000000" stroke="none" 
	d="
M43.531342,1.000000 
	C43.651695,1.640022 43.428730,2.715742 42.937000,2.857199 
	C24.091846,8.278438 13.160688,21.186596 7.967558,39.584484 
	C5.915842,46.853176 3.843391,54.116009 1.390191,61.190758 
	C1.000000,41.085327 1.000000,21.170654 1.000000,1.000000 
	C15.019856,1.000000 29.041269,1.000000 43.531342,1.000000 
z"/>
<path fill="#000000" opacity="1.000000" stroke="none" 
	d="
M105.193649,86.774048 
	C107.007523,88.173721 108.557350,89.321678 110.624275,90.852638 
	C99.278564,101.062897 86.762276,107.929451 71.988876,112.173157 
	C67.502472,98.520065 66.249802,85.012405 70.617233,70.796440 
	C82.997597,74.175323 94.447144,79.263031 105.193649,86.774048 
z"/>
</svg>